<svg preserveAspectRatio="none" overflow="visible" style="display: block;" width="34" height="34" viewBox="0 0 34 34" fill="none" xmlns="http://www.w3.org/2000/svg">
<g id="Frame" clip-path="url(#clip0_0_243)">
<path id="Vector" d="M13.1033 16.4687H20.8486C23.0047 16.4687 24.7031 14.6444 24.7031 12.4793V5.09548C24.7031 2.99386 22.9415 1.41498 20.837 1.06436C19.5051 0.842563 18.1289 0.741625 16.8029 0.748C15.4774 0.754109 14.2497 0.867 13.136 1.06436C9.85416 1.64369 9.29688 2.85759 9.29688 5.09548V7.96875H17V9.03125H6.3155C4.06194 9.03125 2.08834 10.3881 1.4713 12.9654C0.759156 15.9192 0.727547 17.7252 1.4713 20.8093C2.02247 23.1049 3.33864 24.7031 5.59247 24.7031H8.23438V21.2373C8.23438 18.6774 10.4731 16.4687 13.1033 16.4687ZM12.6151 6.08016C11.8113 6.08016 11.16 5.42167 11.16 4.60727C11.16 3.78941 11.811 3.12481 12.6151 3.12481C13.4159 3.12481 14.0704 3.78941 14.0704 4.60727C14.0702 5.42167 13.4157 6.08016 12.6151 6.08016ZM32.4809 12.9654C31.9236 10.7214 30.8598 9.03125 28.603 9.03125H25.7656V12.4793C25.7656 15.1489 23.4297 17.2656 20.8486 17.2656H13.1033C10.9815 17.2656 9.29688 19.2116 9.29688 21.3366V28.721C9.29688 30.8221 11.0885 32.0583 13.1383 32.6612C15.5933 33.383 17.918 33.5134 20.855 32.6612C22.8071 32.0957 24.7031 30.9583 24.7031 28.721V25.7656H17V24.7031H28.603C30.8566 24.7031 31.6968 23.1689 32.4809 20.8091C33.2903 18.3799 33.2555 16.0812 32.4809 12.9654ZM21.3366 27.7358C22.1406 27.7358 22.792 28.3942 22.792 29.2092C22.792 30.0262 22.1409 30.6911 21.3366 30.6911C20.5357 30.6911 19.8815 30.0265 19.8815 29.2092C19.8815 28.3942 20.5357 27.7358 21.3366 27.7358Z" fill="#22223B"/>
</g>
<defs>
<clipPath id="clip0_0_243">
<rect width="34" height="34" fill="white"/>
</clipPath>
</defs>
</svg>
